<svg xmlns="http://www.w3.org/2000/svg" viewBox="0 0 200 150">
  <rect width="200" height="150" fill="#f1f5f9"/>
  <g transform="translate(100, 75) scale(0.1)" opacity="0.3">
    <g transform="translate(-512, -512)">
      <path d="M776.021333 897.024m0-34.133333l0-349.866667q0-34.133333 34.133334-34.133333l115.882666 0q34.133333 0 34.133334 34.133333l0 349.866667q0 34.133333-34.133334 34.133333l-115.882666 0q-34.133333 0-34.133334-34.133333Z" fill="#64748b"/>
      <path d="M370.517333 914.773333H111.274667a72.874667 72.874667 0 0 1-72.704-72.874666V182.101333A72.874667 72.874667 0 0 1 111.274667 109.226667h542.208a25.770667 25.770667 0 0 1 22.186666 13.141333 25.429333 25.429333 0 0 1 0 25.770667l-62.293333 103.936 38.058667 57.173333a25.6 25.6 0 0 1-9.728 37.034667l-172.202667 85.333333 20.992 146.773333a25.429333 25.429333 0 0 1-18.261333 28.16l-140.629334 40.277334 63.658667 235.52a25.6 25.6 0 0 1-24.746667 32.426666zM111.274667 160.426667a21.674667 21.674667 0 0 0-21.504 21.674666v659.797334a21.674667 21.674667 0 0 0 21.504 21.674666h225.792l-61.952-226.986666a25.770667 25.770667 0 0 1 17.066666-31.402667l143.530667-40.96-20.48-142.848a25.770667 25.770667 0 0 1 13.994667-26.624l162.474666-81.237333-30.208-46.592a25.088 25.088 0 0 1 0-27.306667l46.762667-79.189333z" fill="#64748b"/>
      <path d="M912.725333 914.773333H512a25.6 25.6 0 0 1-24.576-18.602666l-47.104-165.034667a25.429333 25.429333 0 0 1 17.066667-31.573333l143.872-41.130667L580.266667 491.690667a25.429333 25.429333 0 0 1 14.848-26.624l185.685333-82.602667L725.674667 290.133333a25.770667 25.770667 0 0 1 0-27.306666l94.378666-141.482667a25.6 25.6 0 0 1 21.162667-11.434667h70.826667a72.874667 72.874667 0 0 1 72.704 72.874667v659.114667a72.874667 72.874667 0 0 1-72.021334 72.874666z m-381.44-51.2h381.44a21.674667 21.674667 0 0 0 21.504-21.674666V182.101333a21.674667 21.674667 0 0 0-21.504-21.674666h-57.002666l-77.824 116.565333 62.464 103.936a25.770667 25.770667 0 0 1-11.605334 36.693333l-194.730666 86.528 21.162666 169.642667a25.6 25.6 0 0 1-18.261333 27.818667l-140.458667 40.106666zM288.085333 396.117333a60.928 60.928 0 1 1 60.928-60.928 60.928 60.928 0 0 1-60.928 60.928z m0-70.656a9.898667 9.898667 0 0 0-9.728 9.728 9.728 9.728 0 0 0 9.728 9.728 9.557333 9.557333 0 0 0 9.728-9.728 9.728 9.728 0 0 0-9.728-9.728z" fill="#64748b"/>
    </g>
  </g>
</svg>
